<?xml version="1.0" encoding="utf-8"?>
<svg version="1.1" id="Capa_1" xmlns="http://www.w3.org/2000/svg" xmlns:xlink="http://www.w3.org/1999/xlink" x="0px" y="0px"
	 viewBox="0 0 1080 1080" style="enable-background:new 0 0 1080 1080;" xml:space="preserve">
<style type="text/css">
	.st0{fill:#001D4A;}
	.st1{fill:none;stroke:#001D41;stroke-miterlimit:10;}
	.st2{fill:#00CCCC;}
</style>
<g>
	<g>
		<g>
			<path class="st0" d="M701.45,412.41c113.45-86.89,278.05,3.21,262.7,145.29c-0.21,1.92-0.44,3.85-0.71,5.78
				c-0.23,1.69-0.48,3.37-0.76,5.04c-23.08,141.31-205.79,184.72-292.3,70.64l-68.34-90.13c-16.04-21.16-11.97-51.3,9.11-67.45
				L701.45,412.41z"/>
			<path class="st1" d="M908.92,848.75"/>
		</g>
	</g>
	<path class="st2" d="M952.7,870.24c-88.72,74.84-204.32,148.07-342.26,146.9c-195.1-1.66-353.46-93.05-438.68-254.33l-0.95-3.1
		c-2.64-7.18,0.22-19.01,8.54-24.97L370.3,610.34c16.99-11.27,27.5-17.85,46.45-16.34c31.23,2.49,44.32,21.17,55.91,50.28
		c14.77,37.13,58.33,135.94,166.96,188.74c18.88,9.17,44.27,20.76,64.94,24.43c45.07,8,100.02,17.34,226.26-26.06
		c0.54-0.18,1.08-0.36,1.63-0.51l0.65-0.18c9.37-2.53,19.68,0.58,25.29,8.5c0.39,0.55,0.76,1.13,1.11,1.71
		c0.61,1.04,1.01,2.19,1.25,3.37C961.71,849.05,963,861.55,952.7,870.24z"/>
	<path class="st2" d="M953.89,197.57c12.36,12.68,15.51,31.8,0.18,40.65c-4.46,2.58-9.81,3.75-15.62,2.84
		c-2.14-0.34-4.22-0.94-6.18-1.84c-114.8-52.79-251.99-48.78-361.91,30.26L142.94,577.23c-10.72,7.72-26.39,1.3-27.58-11.86
		c-0.05-0.58-0.08-1.18-0.08-1.78c0-0.54,0.02,0.54,0,0C103.79,283.07,326.73,46.77,607.44,46.77
		C607.44,46.77,800.6,40.3,953.89,197.57z"/>
</g>
</svg>
